HIERARCHY
ROOT Hips
{
	OFFSET 0.00000 0.00000 0.00000
	CHANNELS 6 Xposition Yposition Zposition Zrotation Yrotation Xrotation 
	JOINT LHipJoint
	{
		OFFSET 0 0 0
		CHANNELS 3 Zrotation Yrotation Xrotation
		JOINT LeftUpLeg
		{
			OFFSET 1.61328 -1.70571 0.84375
			CHANNELS 3 Zrotation Yrotation Xrotation
			JOINT LeftLeg
			{
				OFFSET 2.32400 -6.38513 0.00000
				CHANNELS 3 Zrotation Yrotation Xrotation
				JOINT LeftFoot
				{
					OFFSET 2.58843 -7.11166 0.00000
					CHANNELS 3 Zrotation Yrotation Xrotation
					JOINT LeftToeBase
					{
						OFFSET 0.17200 -0.47257 2.47970
						CHANNELS 3 Zrotation Yrotation Xrotation
						End Site
						{
							OFFSET 0.00000 -0.00000 1.26912
						}
					}
				}
			}
		}
	}
	JOINT RHipJoint
	{
		OFFSET 0 0 0
		CHANNELS 3 Zrotation Yrotation Xrotation
		JOINT RightUpLeg
		{
			OFFSET -1.49930 -1.70570 0.84375
			CHANNELS 3 Zrotation Yrotation Xrotation
			JOINT RightLeg
			{
				OFFSET -2.30458 -6.33178 0.00000
				CHANNELS 3 Zrotation Yrotation Xrotation
				JOINT RightFoot
				{
					OFFSET -2.62261 -7.20556 0.00000
					CHANNELS 3 Zrotation Yrotation Xrotation
					JOINT RightToeBase
					{
						OFFSET -0.18709 -0.51403 2.51340
						CHANNELS 3 Zrotation Yrotation Xrotation
						End Site
						{
							OFFSET -0.00000 -0.00000 1.28858
						}
					}
				}
			}
		}
	}
	JOINT LowerBack
	{
		OFFSET 0 0 0
		CHANNELS 3 Zrotation Yrotation Xrotation
		JOINT Spine
		{
			OFFSET -0.03798 2.19274 -0.19881
			CHANNELS 3 Zrotation Yrotation Xrotation
			JOINT Spine1
			{
				OFFSET -0.00024 2.19460 0.05248
				CHANNELS 3 Zrotation Yrotation Xrotation
				JOINT Neck
				{
					OFFSET 0 0 0
					CHANNELS 3 Zrotation Yrotation Xrotation
					JOINT Neck1
					{
						OFFSET -0.00746 1.82323 0.17286
						CHANNELS 3 Zrotation Yrotation Xrotation
						JOINT Head
						{
							OFFSET 0.11826 1.82121 -0.27841
							CHANNELS 3 Zrotation Yrotation Xrotation
							End Site
							{
								OFFSET 0.03496 1.85543 -0.11495
							}
						}
					}
				}
				JOINT LeftShoulder
				{
					OFFSET 0 0 0
					CHANNELS 3 Zrotation Yrotation Xrotation
					JOINT LeftArm
					{
						OFFSET 3.71926 0.78840 0.25473
						CHANNELS 3 Zrotation Yrotation Xrotation
						JOINT LeftForeArm
						{
							OFFSET 5.37587 -0.00000 0.00000
							CHANNELS 3 Zrotation Yrotation Xrotation
							JOINT LeftHand
							{
								OFFSET 3.35977 -0.00000 0.00000
								CHANNELS 3 Zrotation Yrotation Xrotation
								JOINT LeftFingerBase
								{
									OFFSET 0 0 0
									CHANNELS 3 Zrotation Yrotation Xrotation
									JOINT LeftHandIndex1
									{
										OFFSET 0.56186 -0.00000 0.00000
										CHANNELS 3 Zrotation Yrotation Xrotation
										End Site
										{
											OFFSET 0.45299 -0.00000 0.00000
										}
									}
								}
								JOINT LThumb
								{
									OFFSET 0 0 0
									CHANNELS 3 Zrotation Yrotation Xrotation
									End Site
									{
										OFFSET 0.45990 -0.00000 0.45990
									}
								}
							}
						}
					}
				}
				JOINT RightShoulder
				{
					OFFSET 0 0 0
					CHANNELS 3 Zrotation Yrotation Xrotation
					JOINT RightArm
					{
						OFFSET -3.65136 0.56074 0.01624
						CHANNELS 3 Zrotation Yrotation Xrotation
						JOINT RightForeArm
						{
							OFFSET -5.22819 -0.00000 0.00000
							CHANNELS 3 Zrotation Yrotation Xrotation
							JOINT RightHand
							{
								OFFSET -3.40764 -0.00000 0.00000
								CHANNELS 3 Zrotation Yrotation Xrotation
								JOINT RightFingerBase
								{
									OFFSET 0 0 0
									CHANNELS 3 Zrotation Yrotation Xrotation
									JOINT RightHandIndex1
									{
										OFFSET -0.58325 -0.00000 0.00000
										CHANNELS 3 Zrotation Yrotation Xrotation
										End Site
										{
											OFFSET -0.47024 -0.00000 0.00000
										}
									}
								}
								JOINT RThumb
								{
									OFFSET 0 0 0
									CHANNELS 3 Zrotation Yrotation Xrotation
									End Site
									{
										OFFSET -0.47742 -0.00000 0.47742
									}
								}
							}
						}
					}
				}
			}
		}
	}
}
MOTION
Frames: 12
Frame Time: 0.0123457
0.00 0.00 0.00 0 0 0 0 0 0 -21 0 0 0 0 0 0 0 0 0 0 0 0 0 0 21 0 0 0 0 0 0 0 0 0 0 0 0 0 0 0 0 0 0 0 0 0 0 -16 0 0 21 0 0 11 0 0 0 -8 0 0 0 0 0 0 0 0 0 0 0 0 0 0 0 0 0 0 0 0 8 0 0 0 0 0 0 0 0 0 0 0 0 0 0 0 0 0
0.00 0.00 0.00 -103.7220 -88.4294 107.4630 0.0000 0.0000 0.0000 -22.1656 3.0976 -9.7560 2.8818 10.5012 30.6155 2.1273 3.6319 -29.0415 0.1530 -2.5204 -6.9461 0.0000 0.0000 0.0000 19.4996 5.3650 -20.2161 -8.0435 -16.1512 52.7194 -2.1748 4.1499 -26.9164 -0.0824 -1.8515 5.0954 -2.7972 -0.7458 -2.8623 0.0380 -0.8799 3.4492 1.5412 -0.5572 5.2196 -2.3495 -2.5150 -9.7636 6.1431 -3.5447 4.6814 2.2509 -1.5645 3.4556 0.0000 -0.0000 0.0000 -91.2094 -4.0544 30.9434 14.7727 -23.8286 -3.1336 -0.0000 0.0000 -14.1053 21.4479 18.3511 7.0510 -7.1250 0.0000 -0.0000 -6.5792 49.4821 -0.7299 0.0000 -0.0000 0.0000 89.2107 3.8271 24.3309 -13.5269 22.0544 -2.6479 0.0000 -0.0000 -0.5037 -21.4293 4.9769 -1.9501 7.1250 -0.0000 -0.0000 3.9200 -24.6358 1.9335
0.00 0.00 0.00 -174.4230 -87.5434 177.8020 0.0000 0.0000 0.0000 -24.2419 6.4598 -8.1711 2.4565 9.7584 28.1979 2.1146 2.9798 -28.6707 0.1813 -2.7425 -7.5628 0.0000 0.0000 0.0000 15.7340 8.8796 -30.5266 -13.2620 -18.8747 69.9374 -0.7222 -4.9257 -18.5879 -0.6624 -5.2053 14.4952 -4.6503 -0.7086 -1.5307 -0.7507 -0.7862 3.7635 1.7800 -0.5722 4.8079 -1.8667 -1.6153 -10.0865 5.6069 -2.3291 3.9429 2.0479 -0.9805 3.1788 0.0000 -0.0000 0.0000 -91.3372 -4.1714 38.1393 19.2023 -29.6692 -5.1306 -0.0000 0.0000 -15.9811 23.3194 20.1465 8.4450 -7.1250 0.0000 -0.0000 -5.2319 51.6829 -0.8630 0.0000 -0.0000 0.0000 89.3109 3.5393 25.7089 -14.5367 23.4968 -3.0388 0.0000 -0.0000 -1.9870 -21.2872 4.9545 -1.9273 7.1250 -0.0000 -0.0000 4.0265 -24.6648 1.9835
0.00 0.00 0.00 -356.3770 -84.5165 360.6460 0.0000 0.0000 0.0000 -20.6238 9.9063 14.9803 1.4234 7.5445 21.3388 0.4458 3.7967 -14.5807 1.9880 -8.8410 -25.2994 0.0000 0.0000 0.0000 21.3063 21.2633 -23.7084 -9.1937 -16.9307 56.7575 -2.5894 5.4177 -29.2850 -0.3767 -3.9420 10.9134 -4.0197 -3.9979 -7.0250 0.5575 -4.9983 2.2474 2.1816 -2.6357 6.6941 -1.7847 -0.9805 -8.8228 4.5401 -1.4944 6.3466 1.7438 -0.5913 3.7133 0.0000 -0.0000 0.0000 -97.7187 -5.4251 40.7854 17.5312 -27.5527 -4.3302 -0.0000 0.0000 -15.5608 19.9506 19.7988 7.0095 -7.1250 0.0000 -0.0000 -8.4651 50.7442 -1.2056 0.0000 -0.0000 0.0000 89.5978 -4.7752 9.3676 -9.5094 15.9686 -1.3368 0.0000 0.0000 7.8410 -20.8793 5.6609 -2.1548 7.1250 -0.0000 -0.0000 4.3244 -23.9263 2.2050
0.00 0.00 0.00 -345.9540 -79.5524 351.5550 0.0000 0.0000 0.0000 -17.5936 9.3988 15.1436 1.9016 8.6579 24.7310 -0.1104 6.6356 0.8524 0.7529 -5.5420 -15.4611 0.0000 0.0000 0.0000 21.6862 13.9376 -18.8246 -8.6776 -16.5957 54.9685 -2.9208 8.6198 -30.8802 -0.4445 -4.2776 11.8591 -6.0557 -4.1524 -8.8952 0.1086 -4.9266 -0.1069 2.8230 -2.5949 5.3972 -2.8551 -2.4340 -9.8958 5.0174 -3.6166 12.0998 1.7586 -1.5800 5.4147 0.0000 0.0000 0.0000 -94.5346 -3.2372 20.4413 14.4526 -23.3780 -3.0054 -0.0000 0.0000 -17.9546 25.9233 23.2215 10.8494 -7.1250 0.0000 -0.0000 -3.4656 55.4496 -0.8897 0.0000 0.0000 0.0000 89.7392 -9.4805 14.6987 -12.3388 20.3108 -2.2185 0.0000 0.0000 2.9807 -19.4779 3.4134 -1.2064 7.1250 -0.0000 -0.0000 5.4230 -26.3528 2.4625
0.00 0.00 0.00 -350.3970 -77.1472 362.1490 0.0000 0.0000 0.0000 -14.8792 3.2709 -0.6282 4.6425 12.9695 39.2546 0.7260 2.9125 15.3723 0.5794 -4.8740 -13.5495 0.0000 0.0000 0.0000 23.4280 11.8055 -15.1512 -5.1935 -13.5985 41.6523 -2.4455 7.9906 -28.1789 -0.9645 -6.2531 17.5206 -3.9275 -0.6994 -6.2429 -0.6854 -0.7372 -2.3606 1.4456 -0.3780 1.1039 -4.3456 -5.1566 -13.8747 8.0541 -6.8733 4.7868 2.6479 -3.0652 4.1139 -0.0000 -0.0000 0.0000 -81.9705 -0.1692 25.0808 31.5766 -42.2070 -12.4554 -0.0000 0.0000 -24.2078 9.1507 25.1687 3.9190 -7.1250 0.0000 -0.0000 -21.4505 54.1218 -4.9846 -0.0000 -0.0000 0.0000 86.4789 -17.0840 28.6926 -23.5919 34.7297 -7.4728 0.0000 -0.0000 -5.9604 -16.9440 2.1648 -0.6594 7.1250 -0.0000 -0.0000 7.4161 -27.6924 3.1445
0.00 0.00 0.00 -362.5970 -77.0616 380.3950 0.0000 0.0000 0.0000 -13.1414 -3.5593 -25.6318 7.7415 15.9258 51.6261 -0.3338 -11.2631 9.2984 1.1960 -6.9391 -19.5352 0.0000 0.0000 0.0000 24.8977 10.0408 -19.2412 -3.7279 -11.7893 34.9906 -0.6329 7.0548 -14.2792 -1.8054 -8.4485 24.0848 1.9030 2.8000 4.3569 -1.4704 3.7960 -1.8377 -2.8768 1.8150 -4.1157 -6.2339 -6.9044 -18.6346 10.9596 -8.2559 -9.6232 3.8370 -3.9948 0.7699 0.0000 0.0000 0.0000 -62.7921 -5.1459 23.7674 58.7112 -55.9566 -33.2709 -0.0000 0.0000 -25.5900 23.5914 22.0354 9.3049 -7.1250 0.0000 -0.0000 -5.5302 53.7245 -1.1891 0.0000 0.0000 0.0000 70.2463 -20.4070 44.9382 -48.4485 52.3503 -24.9404 0.0000 -0.0000 -11.1690 -12.2034 0.6971 -0.1508 7.1250 -0.0000 -0.0000 11.1885 -29.1810 4.3895
0.00 0.00 0.00 -373.3790 -79.3029 395.6620 0.0000 0.0000 0.0000 -14.1822 -6.6402 -38.2097 6.6479 15.0281 47.5298 -0.2786 -9.3200 3.8850 2.0594 -8.9888 -25.7603 0.0000 0.0000 0.0000 25.4054 7.5793 -23.5497 -3.4532 -11.3949 33.6234 -0.1300 5.3802 -6.9434 -1.8106 -8.4598 24.1197 3.3461 4.3702 8.5403 -0.9187 6.1089 -0.6264 -3.5799 2.9136 -4.9782 -6.8394 -6.5170 -18.9384 11.0403 -7.5234 -16.0953 4.1830 -3.8535 -1.1779 0.0000 -0.0000 0.0000 -50.2449 -4.3670 15.8888 72.4204 -58.7995 -44.8370 -0.0000 0.0000 -28.4424 24.5328 20.7993 9.2060 -7.1250 0.0000 -0.0000 -4.1892 52.5947 -0.7841 0.0000 -0.0000 0.0000 53.0152 -20.9579 51.6662 -77.3221 59.3839 -49.0433 0.0000 -0.0000 -16.8854 -10.0745 0.9755 -0.1733 7.1250 -0.0000 -0.0000 12.7922 -28.8815 5.1398
0.00 0.00 0.00 -381.1860 -80.5501 406.7570 0.0000 0.0000 0.0000 -17.5991 -6.1319 -45.9805 4.9163 13.2889 40.4599 -0.0548 -4.3676 3.0525 1.8387 -8.5218 -24.3105 0.0000 0.0000 0.0000 26.0985 3.1471 -24.0979 -3.1810 -10.9825 32.2209 0.0207 4.5262 -2.3334 -1.7598 -8.3467 23.7723 2.8421 4.9519 9.6626 0.3476 6.8902 0.0822 -2.1549 3.3189 -5.0166 -6.3373 -5.7319 -17.3878 9.5764 -6.7164 -16.8349 3.7593 -3.5224 -1.7766 -0.0000 -0.0000 0.0000 -41.4460 0.3654 11.0301 74.9372 -59.1251 -46.9936 -0.0000 0.0000 -31.1018 20.6423 21.3835 7.8209 -7.1250 0.0000 -0.0000 -8.3090 52.4969 -1.5418 -0.0000 -0.0000 0.0000 38.2403 -19.5844 52.9061 -101.4107 59.5022 -69.8655 0.0000 -0.0000 -22.4185 -7.8092 0.7102 -0.0974 7.1250 -0.0000 -0.0000 14.5576 -29.1124 5.8075
0.00 0.00 0.00 -380.8660 -76.5982 408.2460 0.0000 0.0000 0.0000 -32.3063 3.0534 -54.8493 2.4304 9.7102 28.0432 0.7753 0.3627 16.5219 0.3318 -3.7019 -10.2396 0.0000 0.0000 0.0000 27.6900 -2.9299 -13.3648 -2.6188 -10.0507 29.1411 0.0190 -2.4456 -0.9929 -2.2532 -9.3747 26.9747 5.1559 3.9500 8.6952 3.8154 5.6954 1.8377 0.4589 2.7350 -2.8356 -4.2289 -5.0221 -14.9304 6.1105 -6.3210 -12.1198 2.4497 -3.2698 -1.0397 0.0000 0.0000 0.0000 -29.9029 8.7555 9.5884 68.5712 -58.1918 -41.5548 -0.0000 0.0000 -29.8797 12.1992 21.9416 4.6185 -7.1250 0.0000 -0.0000 -16.8227 51.5992 -2.8004 0.0000 0.0000 0.0000 25.4500 -14.9961 39.6751 -112.3202 58.0313 -79.2021 0.0000 -0.0000 -30.2147 -3.3224 0.7331 -0.0426 7.1250 -0.0000 -0.0000 17.9484 -29.0045 7.3261
0.00 0.00 0.00 -385.4620 -71.4650 409.0850 0.0000 0.0000 0.0000 -34.3562 3.7340 -46.3642 1.1296 6.7504 18.9780 1.3646 3.2564 21.2565 0.0423 -1.3277 -3.6508 0.0000 0.0000 0.0000 26.0561 -7.3321 3.6210 -5.6777 -14.1086 43.6741 0.2192 -12.3203 5.2492 -2.7297 -10.2441 29.7707 8.4691 3.3074 9.0562 8.6910 4.6879 4.6039 3.9284 2.1691 -0.2766 -3.4381 -5.3105 -12.1010 4.3038 -6.8272 -6.6866 1.6601 -3.4302 0.1944 0.0000 0.0000 0.0000 -21.0594 15.8987 5.3589 73.3673 -58.9284 -45.6475 -0.0000 0.0000 -29.7323 7.8297 20.9088 2.8095 -7.1250 0.0000 -0.0000 -20.4747 49.9225 -2.5804 0.0000 0.0000 0.0000 32.8786 -11.6656 7.1544 -111.5807 58.1650 -78.5743 0.0000 -0.0000 -25.3298 -14.6656 4.6463 -1.2144 7.1250 -0.0000 -0.0000 8.9882 -25.1714 4.3629
0.00 0.00 0.00 -394.2220 -72.6694 416.5460 0.0000 0.0000 0.0000 -32.3902 3.8536 -41.9260 1.1574 6.8303 19.2136 0.2006 -2.7470 9.9345 0.1284 -2.3094 -6.3615 0.0000 0.0000 0.0000 20.3673 -4.0656 6.3673 -10.8693 -17.8705 62.3563 0.2195 -15.4307 8.2805 -2.4945 -9.8279 28.4213 9.1523 3.8866 10.9686 10.1911 5.5387 5.4310 5.0064 2.5080 -0.5227 -3.7733 -5.5526 -10.8086 2.9454 -7.1376 -4.9199 1.2779 -3.5719 0.5100 0.0000 0.0000 0.0000 -18.3238 15.9382 -0.8686 78.5365 -59.4976 -50.0890 -0.0000 0.0000 -29.5222 6.4920 20.7929 2.3132 -7.1250 0.0000 -0.0000 -21.6589 49.6126 -2.5711 0.0000 0.0000 0.0000 38.7407 -9.3479 -3.1013 -115.9332 57.2997 -82.2552 0.0000 -0.0000 -27.1143 -19.9879 4.5843 -1.6652 7.1250 -0.0000 -0.0000 5.0058 -25.1019 2.4182
